<svg width="30" height="30" viewBox="0 0 30 30" fill="none" xmlns="http://www.w3.org/2000/svg">
<circle cx="15" cy="15" r="15" fill="#81B2D4"/>
<path d="M16.6146 14.4H17.1127H17.1254H19.1117C19.6645 14.4 20.1117 13.9522 20.1117 13.4C20.1117 12.8477 19.6645 12.4 19.1117 12.4H18.1002L18.1 12.3873C18.0932 11.8394 17.6469 11.4 17.1 11.4C17.0961 11.4 17.0912 11.4 17.0873 11.4C16.5355 11.4073 16.0932 11.8604 16.1 12.4127L16.1005 12.4543C14.9678 12.6921 14.1146 13.6978 14.1146 14.9C14.1146 16.2784 15.2357 17.4 16.6146 17.4H17.6C17.8754 17.4 18.1 17.6241 18.1 17.9C18.1 18.1759 17.8754 18.4 17.6 18.4H17.1H17.0873H15.1146C14.5619 18.4 14.1146 18.8477 14.1146 19.4C14.1146 19.9522 14.5619 20.4 15.1146 20.4H16.1125L16.1127 20.4127C16.1195 20.9605 16.5658 21.4 17.1127 21.4C17.1166 21.4 17.1215 21.4 17.1254 21.4C17.6771 21.3927 18.1195 20.9395 18.1127 20.3873L18.1121 20.3463C19.2459 20.1093 20.1 19.1029 20.1 17.9C20.1 16.5216 18.9789 15.4 17.6 15.4H16.6146C16.3393 15.4 16.1146 15.1759 16.1146 14.9C16.1146 14.6241 16.3393 14.4 16.6146 14.4Z" fill="#005086"/>
<path d="M22.8324 9.4161C22.8321 9.41317 22.8305 9.41073 22.8302 9.40786L22.8305 9.4034C22.7582 8.87362 22.6742 8.34433 22.5707 7.82479C22.5258 7.60018 22.4057 7.39754 22.2299 7.25155C20.8568 6.10946 17.7416 5.39999 14.1 5.39999C10.4584 5.39999 7.34317 6.10946 5.97013 7.25155C5.79435 7.39755 5.67423 7.60019 5.62931 7.82479C5.52579 8.34433 5.44181 8.87362 5.36954 9.40341L5.36979 9.40683L5.36856 9.41122C5.27579 10.1202 5.20353 10.8292 5.15274 11.5382C5.15079 11.5636 5.14981 11.5885 5.14981 11.6139L5.13229 12.0673L5.13125 12.0719C5.10978 12.5182 5.10001 12.9537 5.10001 13.4C5.10001 13.8463 5.10978 14.2818 5.13224 14.7511L5.14982 15.1856C5.1497 15.1986 5.15635 15.2113 5.15678 15.2244C5.15721 15.2373 5.15184 15.2489 5.15275 15.2618C5.20353 15.9708 5.2758 16.6798 5.36955 17.3966C5.44182 17.9264 5.5258 18.4557 5.62932 18.9752C5.67325 19.1988 5.79337 19.4 5.9672 19.5465C7.12485 20.5158 9.26694 20.9681 10.6938 21.1712C12.1537 23.1263 14.478 24.4 17.1 24.4C21.5111 24.4 25.1 20.8111 25.1 16.4C25.1 14.3247 24.299 12.4377 22.9984 11.0145C22.9508 10.4818 22.8988 9.94577 22.8324 9.4161ZM14.1 7.39999C17.1938 7.39999 19.64 7.97811 20.682 8.60165C20.7141 8.77877 20.7432 8.95694 20.7704 9.13552C20.7292 9.16231 20.6853 9.18996 20.6338 9.21987C20.5778 9.19198 20.5198 9.17776 20.4633 9.15145C20.19 9.02401 19.9099 8.90963 19.6209 8.81332C19.6012 8.80703 19.5816 8.79568 19.5619 8.78964C19.5554 8.7875 19.5485 8.78653 19.542 8.78439C18.7715 8.53671 17.9518 8.39999 17.1 8.39999C16.1692 8.39999 15.279 8.56802 14.4474 8.8616C14.4081 8.87521 14.3695 8.89023 14.3305 8.90445C14.1253 8.98056 13.9242 9.06381 13.7273 9.15591C13.643 9.19479 13.5599 9.23471 13.4772 9.27664C13.3153 9.35934 13.158 9.44845 13.0027 9.54165C12.9466 9.57534 12.8865 9.60214 12.8315 9.63729C12.8236 9.64217 12.7484 9.69247 12.7416 9.69735C12.7281 9.70657 12.7102 9.71853 12.6952 9.72866C12.6602 9.75191 12.6249 9.77438 12.5902 9.79812C12.5591 9.81851 12.5319 9.83651 12.4867 9.86532C12.4268 9.90963 12.3772 9.95571 12.32 10.0003C12.1909 10.097 12.0621 10.1931 11.9393 10.2972C11.7821 10.2824 11.6262 10.2671 11.4734 10.2494C11.3045 10.23 11.1334 10.2119 10.9707 10.1891C10.7395 10.1567 10.5218 10.1181 10.3044 10.0794C10.1587 10.0534 10.0072 10.0299 9.86826 10.0011C9.64298 9.95456 9.43741 9.90091 9.23185 9.84744C9.12162 9.81875 9.00144 9.79348 8.89737 9.76291C8.59983 9.67556 8.32444 9.58163 8.08243 9.48007C7.93076 9.41543 7.80234 9.35342 7.6915 9.29477C7.66031 9.27829 7.63962 9.26413 7.61136 9.2482C7.54471 9.2106 7.4802 9.17349 7.4285 9.13955C7.4567 8.95962 7.48587 8.78011 7.51798 8.60165C8.55997 7.97811 11.0063 7.39999 14.1 7.39999ZM8.66495 15.6869C8.63297 15.6767 8.59726 15.6675 8.56601 15.6571C8.39377 15.6003 8.23184 15.5412 8.08243 15.4801C7.94785 15.4227 7.83615 15.3683 7.73465 15.3159C7.70493 15.3006 7.67752 15.2857 7.65042 15.2709C7.58035 15.2325 7.51755 15.1959 7.46341 15.1614C7.44559 15.15 7.42465 15.1379 7.40848 15.127C7.34677 15.0856 7.29532 15.0474 7.25437 15.0135C7.24094 15.0025 7.23118 14.9932 7.21976 14.9831C7.19364 14.96 7.17008 14.9381 7.15305 14.9201C7.14853 14.9153 7.14396 14.9106 7.13999 14.9062L7.12931 14.6319C7.12247 14.5011 7.11759 14.3707 7.11369 14.2408C7.17521 14.2682 7.23869 14.2955 7.30314 14.3224C7.55412 14.4275 7.82871 14.5228 8.11448 14.6133C8.19804 14.6398 8.28544 14.6645 8.37193 14.6897C8.59281 14.754 8.82279 14.814 9.06199 14.87C9.12254 14.8841 9.17509 14.902 9.23673 14.9156C9.21982 15.0059 9.21525 15.0997 9.20145 15.1909C9.17527 15.3625 9.15006 15.5343 9.13498 15.7093C9.13175 15.7473 9.12326 15.7838 9.12058 15.8219C9.11771 15.8212 9.11448 15.8205 9.11161 15.8197C8.95517 15.7776 8.80857 15.7325 8.66495 15.6869ZM8.20316 11.6391C8.2797 11.6626 8.35685 11.6855 8.43583 11.708C9.0106 11.8719 9.64201 12.0125 10.3354 12.1212C10.2854 12.1999 10.2511 12.2835 10.2047 12.3634C10.1087 12.5267 10.0192 12.6936 9.93473 12.8641C9.91245 12.9107 9.88151 12.9549 9.86045 13.0018C9.83262 12.9961 9.80747 12.9891 9.77988 12.9833C9.50986 12.9257 9.25522 12.8616 9.01297 12.7933C8.94089 12.7729 8.86978 12.7523 8.80045 12.7311C8.53959 12.6512 8.2905 12.5674 8.07169 12.4757C7.93692 12.42 7.82554 12.3665 7.72434 12.3148C7.69724 12.3009 7.6713 12.2872 7.6464 12.2737C7.56718 12.2308 7.49613 12.1894 7.43742 12.1511C7.42857 12.1453 7.41685 12.1388 7.40843 12.1332C7.34459 12.0903 7.29503 12.052 7.25358 12.0174C7.24101 12.0068 7.22978 11.9971 7.21903 11.9874C7.19089 11.9622 7.16648 11.9388 7.14939 11.9202C7.14634 11.9169 7.14182 11.9127 7.13908 11.9095L7.14787 11.691C7.14787 11.6783 7.14885 11.6661 7.14885 11.6534C7.1586 11.525 7.16837 11.3966 7.17911 11.2682C7.22013 11.2862 7.26114 11.3043 7.30313 11.3224C7.57737 11.4373 7.88346 11.5409 8.20316 11.6391ZM7.51798 18.1983C7.46818 17.9176 7.42325 17.6353 7.38321 17.3546C7.40939 17.365 7.44083 17.3734 7.46738 17.3837C7.68149 17.4666 7.90836 17.5445 8.14572 17.6181C8.21634 17.64 8.28665 17.662 8.35922 17.683C8.63919 17.7643 8.92911 17.8413 9.2377 17.9097C9.23978 17.9101 9.24148 17.9108 9.24356 17.9112C9.24582 17.9231 9.2507 17.9344 9.25302 17.9462C9.31863 18.2798 9.40781 18.6043 9.51364 18.9218C8.58146 18.7013 7.9216 18.4396 7.51798 18.1983ZM17.1 22.4C15.0487 22.4 13.2362 21.3642 12.1537 19.7894C12.1352 19.7529 12.1222 19.7141 12.099 19.6798C12.0863 19.6612 12.0736 19.6427 12.06 19.6241C12.0434 19.5919 12.0258 19.5602 12.0053 19.5299C11.8929 19.3592 11.7966 19.1897 11.7104 19.0196C11.6966 18.9914 11.6828 18.9632 11.6694 18.9347C11.5931 18.7762 11.5256 18.6169 11.4703 18.4552C11.4655 18.4423 11.4607 18.4294 11.4561 18.4165C11.4478 18.3845 11.4388 18.3529 11.4272 18.3219C11.3561 18.13 11.3018 17.9342 11.2555 17.7372C11.2484 17.706 11.2383 17.6759 11.2316 17.6445C11.1858 17.4305 11.1532 17.2145 11.1371 16.9972C11.1362 16.9847 11.1298 16.974 11.1284 16.9616C11.1112 16.7765 11.1 16.5896 11.1 16.4C11.1 16.1015 11.1295 15.8103 11.1715 15.5232C11.1813 15.4566 11.19 15.3897 11.202 15.3239C11.2533 15.042 11.3216 14.7658 11.4138 14.4988C11.4355 14.4339 11.4604 14.3705 11.4843 14.3066C11.5263 14.1956 11.5683 14.0876 11.6225 13.964C11.7101 13.7533 11.8236 13.5525 11.9401 13.3534C11.9908 13.2678 12.0403 13.1814 12.0951 13.0986C12.2258 12.9016 12.366 12.7095 12.5234 12.5288C12.552 12.495 12.5833 12.4637 12.6126 12.4306C12.667 12.3711 12.7188 12.3106 12.7875 12.2564C12.8188 12.232 12.849 12.2052 12.8773 12.1769C12.8773 12.1769 12.9018 12.1515 12.9213 12.131C12.9469 12.1112 12.9643 12.0844 12.9876 12.0625C13.0005 12.0504 13.0183 12.0457 13.0307 12.0328C13.1656 11.8925 13.3096 11.7652 13.4459 11.6518C13.5315 11.5857 13.6165 11.5189 13.7057 11.4574C13.7387 11.436 13.7772 11.4105 13.8154 11.3848C13.8855 11.3387 13.9585 11.2971 14.0306 11.2539C14.1427 11.1863 14.2566 11.1219 14.3731 11.0621C14.4479 11.0238 14.5241 10.9877 14.6006 10.9524C14.7195 10.8979 14.8398 10.847 14.9622 10.8005C15.0276 10.7755 15.0932 10.751 15.1596 10.7282C15.3092 10.6774 15.461 10.6326 15.6145 10.5937C15.6578 10.5826 15.7006 10.5703 15.7443 10.5602C15.9265 10.5184 16.1107 10.4852 16.2964 10.4602C16.3187 10.4572 16.3407 10.4528 16.3631 10.45C16.5632 10.4253 16.7649 10.4114 16.9671 10.4067C16.9813 10.4064 16.9953 10.4048 17.0096 10.4046C17.66 10.3939 18.3148 10.488 18.9416 10.692C19.0017 10.7114 19.0595 10.7357 19.1188 10.7569C19.2334 10.7965 19.3477 10.8372 19.4604 10.8853C19.57 10.9323 19.6756 10.987 19.7817 11.0403C19.8647 11.0824 19.9485 11.1224 20.0298 11.1691C20.1591 11.2418 20.2861 11.3181 20.4093 11.3998C20.481 11.4466 20.5484 11.4989 20.6172 11.5493C20.6872 11.6002 20.7573 11.651 20.825 11.7048C20.9474 11.8054 21.0669 11.911 21.183 12.0269L21.185 12.0294C21.1908 12.0352 21.1967 12.0411 21.2025 12.047C21.225 12.0699 21.2484 12.0914 21.2738 12.1114C21.2954 12.1372 21.3275 12.1475 21.3511 12.1707C22.4311 13.2563 23.1 14.7513 23.1 16.4C23.1 19.7086 20.4086 22.4 17.1 22.4Z" fill="#005086"/>
</svg>
